# xmcd CD database file
#
# Track frame offsets:
#	150
#	21785
#	39993
#	62092
#	83825
#	103244
#	127097
#	143937
#	156801
#	176159
#
# Disc length: 2644 seconds
#
# Revision: 22
# Processed by: cddbd v1.5.2PL0 Copyright (c) Steve Scherf et al.
# Submitted via: CDex 1.90
#
DISCID=880a520a
DTITLE=Depeche Mode - Music For The Masses [CD) (1 of 2)
DYEAR=2008
DGENRE=Synthpop
TTITLE0=Never Let Me Down Again
TTITLE1=The Things You Said
TTITLE2=Strangelove
TTITLE3=Sacred
TTITLE4=Little 15
TTITLE5=Behind The Wheel
TTITLE6=I Want You Now
TTITLE7=To Have And To Hold
TTITLE8=Nothing
TTITLE9=Pimpf
EXTD=YEAR: 2008
EXTT0=
EXTT1=
EXTT2=
EXTT3=
EXTT4=
EXTT5=
EXTT6=
EXTT7=
EXTT8=
EXTT9=
PLAYORDER=
